<?xml version="1.0" encoding="UTF-8"?>
<svg id="Layer_1" xmlns="http://www.w3.org/2000/svg" version="1.1" viewBox="0 0 1309.8 267.3">
  <!-- Generator: Adobe Illustrator 30.0.0, SVG Export Plug-In . SVG Version: 2.1.1 Build 123)  -->
  <defs>
    <style>
      .st0 {
        fill: #e6e6e6;
      }

      .st1 {
        fill: #848484;
      }
    </style>
  </defs>
  <g>
    <rect x="3" y="2.1" width="1303.8" height="263.1" rx="21.1" ry="21.1"/>
    <path class="st1" d="M1285.7,5.1c10,0,18.1,8.1,18.1,18.1v221c0,10-8.1,18.1-18.1,18.1H24.1c-10,0-18.1-8.1-18.1-18.1V23.2C6,13.2,14.1,5.1,24.1,5.1h1261.7M1285.7-.9H24.1C10.8-.9,0,9.9,0,23.2v221C0,257.4,10.8,268.2,24.1,268.2h1261.7c13.3,0,24.1-10.8,24.1-24.1V23.2c0-13.3-10.8-24.1-24.1-24.1h0Z"/>
  </g>
  <g>
    <path class="st0" d="M123.1,87.7h-30.6v-6.9c0-7-1.6-13-4.9-18.1-3.3-5.1-8.9-7.6-16.6-7.6s-7.6.8-10.2,2.4c-2.6,1.6-4.7,3.6-6.3,6-1.6,2.6-2.7,5.5-3.3,8.9-.6,3.3-.9,6.8-.9,10.3s.1,7.7.5,10.5c.3,2.8,1,5.3,2.2,7.5,1.2,2.2,2.9,4.1,5.2,5.7,2.3,1.6,5.4,3.2,9.4,4.8l23.4,9.3c6.8,2.6,12.3,5.7,16.5,9.1,4.2,3.5,7.5,7.6,9.9,12.1,2.2,4.8,3.7,10.3,4.5,16.4.8,6.1,1.2,13,1.2,20.9s-.9,17.4-2.7,25c-1.8,7.7-4.7,14.2-8.7,19.6-4.2,5.6-9.7,10-16.5,13.2-6.8,3.2-15.1,4.8-24.9,4.8s-14.3-1.3-20.7-3.9c-6.4-2.6-11.9-6.2-16.5-10.8-4.6-4.6-8.2-9.9-10.9-16.1-2.7-6.1-4.1-12.8-4.1-19.9v-11.4h30.6v9.6c0,5.6,1.6,10.7,5,15.2,3.3,4.5,8.8,6.8,16.6,6.8s9.2-.8,12.1-2.2c2.9-1.5,5.1-3.6,6.8-6.5,1.6-2.8,2.5-6.1,2.9-10,.3-3.9.4-8.2.4-13.1s-.2-10.2-.6-13.8c-.4-3.6-1.2-6.5-2.4-8.7-1.4-2.2-3.3-4-5.5-5.4-2.3-1.4-5.4-2.9-9.1-4.5l-21.9-9c-13.2-5.4-22.1-12.5-26.6-21.5-4.5-8.9-6.8-20-6.8-33.4s1.1-15.6,3.3-22.8c2.2-7.2,5.5-13.4,9.9-18.6,4.2-5.2,9.5-9.3,16-12.5,6.5-3.1,14.2-4.6,23.2-4.6s14.6,1.4,20.9,4.2c6.3,2.8,11.7,6.5,16.4,11.1,9.2,9.6,13.8,20.6,13.8,33v15Z"/>
    <path class="st0" d="M145.9,239.8V26.2h45.9c8.4,0,15.8,1.1,22.2,3.3,6.4,2.2,12.2,6.1,17.4,11.7,5.2,5.6,8.8,12.1,10.8,19.6,2,7.5,3,17.7,3,30.5s-.6,17.7-1.7,24.3c-1.1,6.6-3.4,12.8-7,18.6-4.2,7-9.8,12.5-16.8,16.4-7,3.9-16.2,5.9-27.6,5.9h-15.6v83.4h-30.6ZM176.5,55v72.6h14.7c6.2,0,11-.9,14.4-2.7,3.4-1.8,5.9-4.3,7.5-7.5,1.6-3,2.5-6.7,2.9-11.1.3-4.4.4-9.3.4-14.7s-.1-9.8-.3-14.2c-.2-4.5-1.1-8.4-2.7-11.8-1.6-3.4-4-6-7.2-7.8-3.2-1.8-7.8-2.7-13.8-2.7h-15.9Z"/>
    <path class="st0" d="M268,239.8V26.2h30.6v183h60.6v30.6h-91.2Z"/>
    <path class="st0" d="M379.9,239.8V26.2h30.6v213.6h-30.6Z"/>
    <path class="st0" d="M460.3,239.8V55h-35.4v-28.8h101.4v28.8h-35.4v184.8h-30.6Z"/>
    <path class="st0" d="M539.8,239.8V26.2h91.2v28.8h-60.6v64.8h52.8v28.8h-52.8v91.2h-30.6Z"/>
    <path class="st0" d="M650.8,239.8V26.2h30.6v183h60.6v30.6h-91.2Z"/>
    <path class="st0" d="M748,239.8l47.7-213.6h25.5l47.7,213.6h-30.6l-9-45.9h-41.7l-9,45.9h-30.6ZM823.6,165.1l-15-77.4h-.6l-15,77.4h30.6Z"/>
    <path class="st0" d="M883.9,239.8V26.2h45.9c8.4,0,15.8,1.1,22.2,3.3,6.4,2.2,12.2,6.1,17.4,11.7,5.2,5.6,8.8,12.1,10.8,19.6,2,7.5,3,17.7,3,30.5s-.6,17.7-1.7,24.3c-1.1,6.6-3.5,12.8-7,18.6-4.2,7-9.8,12.5-16.8,16.4-7,3.9-16.2,5.9-27.6,5.9h-15.6v83.4h-30.6ZM914.5,55v72.6h14.7c6.2,0,11-.9,14.4-2.7,3.4-1.8,5.9-4.3,7.5-7.5,1.6-3,2.6-6.7,2.9-11.1.3-4.4.5-9.3.5-14.7s-.1-9.8-.3-14.2c-.2-4.5-1.1-8.4-2.7-11.8-1.6-3.4-4-6-7.2-7.8-3.2-1.8-7.8-2.7-13.8-2.7h-15.9Z"/>
    <path class="st0" d="M1060,76.6c0-8.6,1.5-16.2,4.5-22.8s7-12.1,12-16.5c4.8-4.2,10.2-7.4,16.4-9.6,6.1-2.2,12.2-3.3,18.5-3.3s12.3,1.1,18.4,3.3c6.1,2.2,11.6,5.4,16.7,9.6,4.8,4.4,8.7,9.9,11.7,16.5s4.5,14.2,4.5,22.8v112.8c0,9-1.5,16.7-4.5,23.1-3,6.4-6.9,11.7-11.7,15.9-5,4.4-10.6,7.7-16.7,9.9-6.1,2.2-12.3,3.3-18.4,3.3s-12.4-1.1-18.5-3.3c-6.1-2.2-11.5-5.5-16.4-9.9-5-4.2-9-9.5-12-15.9-3-6.4-4.5-14.1-4.5-23.1v-112.8ZM1090.6,189.4c0,7.4,2,12.9,6.1,16.4,4.1,3.5,8.9,5.2,14.6,5.2s10.4-1.7,14.5-5.2c4.1-3.5,6.1-8.9,6.1-16.4v-112.8c0-7.4-2.1-12.8-6.1-16.3-4.1-3.5-9-5.2-14.5-5.2s-10.5,1.8-14.6,5.2c-4.1,3.5-6.1,9-6.1,16.3v112.8Z"/>
    <path class="st0" d="M1288.6,87.7h-30.6v-6.9c0-7-1.6-13-5-18.1-3.3-5.1-8.8-7.6-16.6-7.6s-7.6.8-10.2,2.4c-2.6,1.6-4.7,3.6-6.3,6-1.6,2.6-2.7,5.5-3.3,8.9-.6,3.3-.9,6.8-.9,10.3s.2,7.7.5,10.5c.3,2.8,1,5.3,2.2,7.5,1.2,2.2,2.9,4.1,5.2,5.7,2.3,1.6,5.4,3.2,9.5,4.8l23.4,9.3c6.8,2.6,12.3,5.7,16.5,9.1,4.2,3.5,7.5,7.6,9.9,12.1,2.2,4.8,3.7,10.3,4.5,16.4.8,6.1,1.2,13,1.2,20.9s-.9,17.4-2.7,25c-1.8,7.7-4.7,14.2-8.7,19.6-4.2,5.6-9.7,10-16.5,13.2-6.8,3.2-15.1,4.8-24.9,4.8s-14.3-1.3-20.7-3.9c-6.4-2.6-11.9-6.2-16.5-10.8-4.6-4.6-8.2-9.9-11-16.1-2.7-6.1-4-12.8-4-19.9v-11.4h30.6v9.6c0,5.6,1.7,10.7,5,15.2s8.8,6.8,16.6,6.8,9.2-.8,12.2-2.2c2.9-1.5,5.1-3.6,6.8-6.5,1.6-2.8,2.5-6.1,2.8-10,.3-3.9.5-8.2.5-13.1s-.2-10.2-.6-13.8c-.4-3.6-1.2-6.5-2.4-8.7-1.4-2.2-3.3-4-5.5-5.4-2.3-1.4-5.4-2.9-9.2-4.5l-21.9-9c-13.2-5.4-22-12.5-26.5-21.5-4.5-8.9-6.8-20-6.8-33.4s1.1-15.6,3.3-22.8c2.2-7.2,5.5-13.4,9.9-18.6,4.2-5.2,9.5-9.3,16.1-12.5,6.5-3.1,14.2-4.6,23.2-4.6s14.5,1.4,20.8,4.2c6.3,2.8,11.7,6.5,16.3,11.1,9.2,9.6,13.8,20.6,13.8,33v15Z"/>
  </g>
  <rect x="5.4" y="126.7" width="1292.7" height="13.9"/>
</svg>