<?xml version="1.0" encoding="UTF-8"?>
<svg id="Layer_1" xmlns="http://www.w3.org/2000/svg" version="1.1" viewBox="0 0 1309.8 267.3">
  <!-- Generator: Adobe Illustrator 30.0.0, SVG Export Plug-In . SVG Version: 2.1.1 Build 123)  -->
  <defs>
    <style>
      .st0 {
        fill: #848484;
      }

      .st1 {
        fill: #e6e6e6;
        font-family: DINCondensed-Bold, 'DIN Condensed';
        font-size: 300px;
        font-weight: 700;
      }
    </style>
  </defs>
  <g>
    <rect x="1.5" y=".6" width="1306.8" height="266.1" rx="22.6" ry="22.6"/>
    <path class="st0" d="M1285.7,2.1c11.6,0,21.1,9.4,21.1,21.1v221c0,11.6-9.4,21.1-21.1,21.1H24.1c-11.6,0-21.1-9.4-21.1-21.1V23.2C3,11.6,12.4,2.1,24.1,2.1h1261.7M1285.7-.9H24.1C10.8-.9,0,9.9,0,23.2v221C0,257.4,10.8,268.2,24.1,268.2h1261.7c13.3,0,24.1-10.8,24.1-24.1V23.2c0-13.3-10.8-24.1-24.1-24.1h0Z"/>
  </g>
  <text class="st1" transform="translate(9.7 239.8)"><tspan x="0" y="0">SPLITFLAP OS</tspan></text>
  <rect x="5.4" y="126.7" width="1292.7" height="13.9"/>
</svg>